<svg fill="#ffffff" xmlns="http://www.w3.org/2000/svg"  viewBox="0 0 100 100" width="100px" height="100px"><path fill="none" stroke="#ffffff" stroke-linejoin="round" stroke-miterlimit="10" stroke-width="2" d="M32,70v8c0,2.724,2.248,5,4.973,5H43c0,0,0.108-4-4-4v-5c0,0,5-2,7-8"/><path fill="none" stroke="#ffffff" stroke-linejoin="round" stroke-miterlimit="10" stroke-width="2" d="M77.73,24.195c-2.905-5.813-6.917-6.164-9.04-6.164h-3.284c-3.33,0-5.52,2.348-6.49,4.919c-0.486,1.289-4.458,12.043-5.835,15.624C51.704,42.154,48.434,43,46,43H33.5c-0.442,0-2.5,0-2.5,0c-3.234-0.745-8.215-2.527-9.5-7c-1.225-4.264,0.1-9.251,3.619-14.577c0.616-0.933,0.536-2.221-0.326-2.933c-0.986-0.815-2.425-0.58-3.115,0.455c-4.318,6.476-5.57,12.978-4.074,18.144C19.014,41.948,22.288,45.998,25,48c-1.157,1.798-2,3-2,7c0,12-6,15-6,15l0,8.067C17,80.791,19.209,83,21.934,83H28c0,0,0.108-4-4-4v-5c11.1-4.933,15-10,15-10c6.167,0,7.133,4,17,4v10c0,2.75,2.25,4.995,5.001,4.989l6.033-0.015c0,0-0.333-3.974-4.033-3.974V66h0c4.969,0,8.996-4.032,8.989-9.001c-0.006-4.416,0-8.556,0.006-13.003C71.997,41.786,73.79,40,76,40h0c12.325,0,11-10,11-10S79.784,28.305,77.73,24.195z"/><path fill="none" stroke="#ffffff" stroke-linecap="round" stroke-linejoin="round" stroke-miterlimit="10" d="M61.718,29.226c-0.561,2.055-1.218,5.024-1.218,7.658c0,2.553,1.5,5.616,4.5,5.616s4.5-3.063,4.5-5.616c0-2.646-0.94-5.565-1.846-7.765c-0.826-2.007-3.056-3.058-5.154-2.446"/><path fill="none" stroke="#ffffff" stroke-linejoin="round" stroke-miterlimit="10" stroke-width="2" d="M67.044,82.989L73,83c0,0-0.3-4-4-4l0-15"/><path d="M85 29A2 2 0 1 0 85 33 2 2 0 1 0 85 29zM74.5 26A1.5 1.5 0 1 0 74.5 29 1.5 1.5 0 1 0 74.5 26z"/><path fill="none" stroke="#ffffff" stroke-linecap="round" stroke-linejoin="round" stroke-miterlimit="10" d="M54.5 55.469V55.5c0 5.523-3.477 10-9 10h0M54.5 51.469L54.5 53.469M54.5 35.5L54.5 49.469M27.366 50.519L39 64"/></svg>