<svg xmlns="http://www.w3.org/2000/svg"  viewBox="0 0 64 64" width="72px" height="72px"><linearGradient id="QM_ADSj3N8cjmZNjezXvqa" x1="32" x2="32" y1="11.25" y2="59.016" gradientUnits="userSpaceOnUse" spreadMethod="reflect"><stop offset="0" stop-color="#1a6dff"/><stop offset="1" stop-color="#c822ff"/></linearGradient><path fill="url(#QM_ADSj3N8cjmZNjezXvqa)" d="M32,58C19.317,58,9,47.683,9,35c0-9.047,5.335-17.287,13.591-20.993l0.818,1.824 C15.871,19.216,11,26.74,11,35c0,11.579,9.421,21,21,21s21-9.421,21-21c0-8.264-4.874-15.789-12.416-19.172l0.818-1.824 C49.663,17.708,55,25.949,55,35C55,47.683,44.683,58,32,58z"/><linearGradient id="QM_ADSj3N8cjmZNjezXvqb" x1="32" x2="32" y1="5.25" y2="35.509" gradientUnits="userSpaceOnUse" spreadMethod="reflect"><stop offset="0" stop-color="#6dc7ff"/><stop offset="1" stop-color="#e6abff"/></linearGradient><path fill="url(#QM_ADSj3N8cjmZNjezXvqb)" d="M36,30c0,2.209-1.791,4-4,4h0c-2.209,0-4-1.791-4-4V10c0-2.209,1.791-4,4-4h0 c2.209,0,4,1.791,4,4V30z"/><linearGradient id="QM_ADSj3N8cjmZNjezXvqc" x1="32" x2="32" y1="11.25" y2="59.016" gradientUnits="userSpaceOnUse" spreadMethod="reflect"><stop offset="0" stop-color="#1a6dff"/><stop offset="1" stop-color="#c822ff"/></linearGradient><path fill="url(#QM_ADSj3N8cjmZNjezXvqc)" d="M32,52c-9.374,0-17-7.626-17-17c0-6.558,3.664-12.416,9.562-15.291l0.877,1.799 C20.233,24.044,17,29.214,17,35c0,8.271,6.729,15,15,15s15-6.729,15-15c0-5.785-3.232-10.955-8.437-13.492l0.877-1.797 C45.337,22.585,49,28.443,49,35C49,44.374,41.374,52,32,52z"/></svg>