<svg fill="#ffffff" xmlns="http://www.w3.org/2000/svg"  viewBox="0 0 48 48" width="40px" height="40px"><path fill="none" stroke="#ffffff" stroke-miterlimit="10" stroke-width="3" d="M34.5,34.5h-25c-2.209,0-4-1.791-4-4v-13	c0-2.209,1.791-4,4-4h25c2.209,0,4,1.791,4,4v13C38.5,32.709,36.709,34.5,34.5,34.5z"/><path d="M25,30H12c-1.105,0-2-0.895-2-2v-8c0-1.105,0.895-2,2-2h13c1.105,0,2,0.895,2,2v8C27,29.105,26.105,30,25,30z"/><path d="M42,28h-3.5v-8H42c1.105,0,2,0.895,2,2v4C44,27.105,43.105,28,42,28z"/></svg>