<svg fill="#ffffff" xmlns="http://www.w3.org/2000/svg"  viewBox="0 0 80 80" width="40px" height="40px"><path fill="none" stroke="#ffffff" stroke-miterlimit="10" stroke-width="2" d="M65,69H15c-2.209,0-4-1.791-4-4V15c0-2.209,1.791-4,4-4h44l10,10v44C69,67.209,67.209,69,65,69z"/><path fill="none" stroke="#ffffff" stroke-miterlimit="10" stroke-width="2" d="M55 41H25c-2.209 0-4 1.791-4 4v24h38V45C59 42.791 57.209 41 55 41zM23 11v16c0 1.105.895 2 2 2h28c1.105 0 2-.895 2-2V11"/><path fill="none" stroke="#ffffff" stroke-miterlimit="10" stroke-width="2" d="M30,29h23c1.105,0,2-0.895,2-2V13c0-1.105-0.895-2-2-2H30c-1.105,0-2,0.895-2,2v14C28,28.105,28.895,29,30,29z"/><path fill="none" stroke="#ffffff" stroke-miterlimit="10" stroke-width="2" d="M45 16H49V24H45z"/><path d="M64 62H66V64H64zM14 62H16V64H14zM30 54A1 1 0 1 0 30 56 1 1 0 1 0 30 54zM34 54A1 1 0 1 0 34 56 1 1 0 1 0 34 54zM38 54A1 1 0 1 0 38 56 1 1 0 1 0 38 54zM42 54A1 1 0 1 0 42 56 1 1 0 1 0 42 54zM46 54A1 1 0 1 0 46 56 1 1 0 1 0 46 54zM50 54A1 1 0 1 0 50 56 1 1 0 1 0 50 54zM54 54A1 1 0 1 0 54 56 1 1 0 1 0 54 54zM58 54A1 1 0 1 0 58 56 1 1 0 1 0 58 54zM30 47A1 1 0 1 0 30 49 1 1 0 1 0 30 47zM34 47A1 1 0 1 0 34 49 1 1 0 1 0 34 47zM38 47A1 1 0 1 0 38 49 1 1 0 1 0 38 47zM42 47A1 1 0 1 0 42 49 1 1 0 1 0 42 47zM46 47A1 1 0 1 0 46 49 1 1 0 1 0 46 47zM50 47A1 1 0 1 0 50 49 1 1 0 1 0 50 47zM54 47A1 1 0 1 0 54 49 1 1 0 1 0 54 47zM58 47A1 1 0 1 0 58 49 1 1 0 1 0 58 47zM30 61A1 1 0 1 0 30 63 1 1 0 1 0 30 61zM34 61A1 1 0 1 0 34 63 1 1 0 1 0 34 61zM22 54A1 1 0 1 0 22 56 1 1 0 1 0 22 54zM26 54A1 1 0 1 0 26 56 1 1 0 1 0 26 54zM22 47A1 1 0 1 0 22 49 1 1 0 1 0 22 47zM26 47A1 1 0 1 0 26 49 1 1 0 1 0 26 47zM22 61A1 1 0 1 0 22 63 1 1 0 1 0 22 61zM26 61A1 1 0 1 0 26 63 1 1 0 1 0 26 61zM38 61A1 1 0 1 0 38 63 1 1 0 1 0 38 61zM42 61A1 1 0 1 0 42 63 1 1 0 1 0 42 61zM46 61A1 1 0 1 0 46 63 1 1 0 1 0 46 61zM50 61A1 1 0 1 0 50 63 1 1 0 1 0 50 61zM54 61A1 1 0 1 0 54 63 1 1 0 1 0 54 61zM58 61A1 1 0 1 0 58 63 1 1 0 1 0 58 61z"/></svg>