<svg fill="#fff" xmlns="http://www.w3.org/2000/svg"  viewBox="0 0 26 26" width="52px" height="52px"><path fill="none" stroke="#000000" stroke-linecap="round" stroke-linejoin="round" stroke-miterlimit="10" stroke-width=".975" d="M13.695 18.469L12.543 14.542 16.469 15.696"/><path d="M14.42 14.947l-1.463-.431c-.125-.038-.261-.003-.354.089-.064.067-.102.16-.102.251 0 .033.004.067.014.099l.43 1.466L14.42 14.947zM16.186 15.983L15.406 17.387 13.986 18.185 18.481 22.682 20.68 20.48z"/><path d="M18.572 22.601L14.037 18.061 13.326 18.773 17.836 23.334zM20.629 20.543L21.286 19.887 16.772 15.325 16.094 16.003zM18.385 23.832L21.836 20.386 22.572 21.173 19.125 24.622zM19.729 25.029l3.301-3.305.514.509c.451.45.449 1.186-.006 1.644l-1.653 1.649c-.456.458-1.19.463-1.646.011L19.729 25.029z"/><g><path d="M23.621,2.379C21.285,0.043,20.828,0,20,0H3C1.344,0,0,1.343,0,3v20c0,1.657,1.344,3,3,3h14.69l-0.991-1H4 c-0.551,0-1-0.449-1-1V14c0-0.551,0.449-1,1-1h18c0.551,0,1,0.449,1,1v4.786c0.104,0.071,1.957,2.032,1.957,2.032 c0.238,0.239,0.417,0.513,0.563,0.799C25.82,21.15,26,20.598,26,20V6C26,5.172,25.957,4.715,23.621,2.379z M20,9 c0,0.551-0.449,1-1,1H6c-0.551,0-1-0.449-1-1V2c0-0.551,0.449-1,1-1h13c0.551,0,1,0.449,1,1V9z"/><path d="M15 2H18V9H15z"/></g></svg>