<svg fill="#ffffff" xmlns="http://www.w3.org/2000/svg"  viewBox="0 0 48 48" width="40px" height="40px"><path fill="none" stroke="#ffffff" stroke-linejoin="round" stroke-miterlimit="10" stroke-width="3" d="M29,28.137 c0-5.296,0-17.734,0-18.637c0-2.761-2.239-5-5-5s-5,2.239-5,5c0,1.942,0,12.526,0,18.637c-2.118,1.546-3.5,4.04-3.5,6.863 c0,4.694,3.806,8.5,8.5,8.5s8.5-3.806,8.5-8.5C32.5,32.177,31.118,29.683,29,28.137z"/><circle cx="24" cy="35" r="5"/><line x1="24" x2="24" y1="33.5" y2="17.5" fill="none" stroke="#ffffff" stroke-linecap="round" stroke-miterlimit="10" stroke-width="3"/><line x1="29" x2="32.5" y1="17.5" y2="17.5" fill="none" stroke="#ffffff" stroke-linecap="round" stroke-miterlimit="10" stroke-width="3"/><line x1="29" x2="32.5" y1="22.5" y2="22.5" fill="none" stroke="#ffffff" stroke-linecap="round" stroke-miterlimit="10" stroke-width="3"/><line x1="29" x2="32.5" y1="12.5" y2="12.5" fill="none" stroke="#ffffff" stroke-linecap="round" stroke-miterlimit="10" stroke-width="3"/></svg>